<svg width="39" height="39" viewBox="0 0 39 39" fill="none" xmlns="http://www.w3.org/2000/svg">
<path d="M30.62 38.45C31.61 38.45 32.6 38.32 33.56 38.07C34.68 37.76 35.63 37.02 36.21 36.02L38.12 32.84C38.73 31.83 38.43 30.52 37.45 29.86L29.84 24.79C28.87 24.15 27.58 24.36 26.87 25.27L24.65 28.12C24.37 28.5 23.85 28.6 23.44 28.38L23.02 28.15C21.62 27.39 19.88 26.44 16.38 22.94C12.88 19.44 11.93 17.7 11.17 16.3L10.94 15.88C10.71 15.47 10.81 14.95 11.19 14.66L14.04 12.45C14.95 11.74 15.16 10.44 14.52 9.48L9.45002 1.87C8.80002 0.890001 7.48001 0.590001 6.47001 1.2L3.29002 3.11C2.29002 3.7 1.56001 4.65 1.24001 5.76C0.090014 9.93 0.960014 17.14 11.57 27.75C20.01 36.19 26.29 38.46 30.61 38.46L30.62 38.45ZM2.46001 6.08C2.69001 5.28 3.22001 4.59 3.94001 4.17L7.12002 2.26C7.56002 2 8.13001 2.12 8.41001 2.55L11.17 6.69L13.48 10.16C13.76 10.58 13.67 11.14 13.27 11.45L10.42 13.66C9.55001 14.32 9.31001 15.52 9.84001 16.47L10.07 16.88C10.87 18.35 11.87 20.17 15.5 23.81C19.13 27.44 20.96 28.44 22.43 29.24L22.84 29.47C23.79 30 24.99 29.76 25.65 28.89L27.86 26.04C28.17 25.65 28.73 25.55 29.15 25.83L36.76 30.9C37.19 31.18 37.32 31.75 37.05 32.19L35.14 35.37C34.72 36.09 34.03 36.62 33.23 36.85C29.38 37.91 22.65 37.03 12.46 26.85C2.27001 16.67 1.40001 9.93 2.46001 6.08Z" fill="white"/>
<path d="M33.43 17.16C27.55 17.16 22.79 12.39 22.78 6.51C22.78 6.16 22.5 5.88 22.15 5.88C21.8 5.88 21.52 6.16 21.52 6.51C21.52 13.08 26.85 18.4 33.42 18.41C33.77 18.41 34.05 18.13 34.05 17.78C34.05 17.43 33.77 17.15 33.42 17.15L33.43 17.16Z" fill="white"/>
<path d="M33.43 13.4C29.63 13.4 26.55 10.31 26.54 6.51C26.54 6.16 26.26 5.88 25.91 5.88C25.56 5.88 25.28 6.16 25.28 6.51C25.28 11 28.93 14.65 33.42 14.65C33.77 14.65 34.05 14.37 34.05 14.02C34.05 13.67 33.77 13.39 33.42 13.39L33.43 13.4Z" fill="white"/>
<path d="M33.43 9.64C31.7 9.64 30.3 8.24 30.3 6.51C30.3 6.16 30.02 5.88 29.67 5.88C29.32 5.88 29.04 6.16 29.04 6.51C29.04 8.93 31 10.89 33.42 10.89C33.77 10.89 34.05 10.61 34.05 10.26C34.05 9.91 33.77 9.63 33.42 9.63L33.43 9.64Z" fill="white"/>
</svg>
