<svg width="54" height="52" viewBox="0 0 54 52" fill="none" xmlns="http://www.w3.org/2000/svg">
<path d="M25.57 51.23C19.3 51.19 11.8 51.31 4.3 51.14C3.52 51.12 2.74 51.12 2.06 50.67C1.37 50.22 0.800005 49.68 0.700005 48.79C0.580005 47.81 0.410004 46.83 0.410004 45.84C0.410004 38.91 0.410004 31.98 0.420004 25.04C0.420004 24.21 0.530005 23.37 0.620005 22.55C0.690005 21.95 0.970003 21.48 1.4 21.02C3.04 19.28 5.09 18.03 6.88 16.46C7.3 16.1 7.49 15.75 7.48 15.21C7.42 10.38 7.38 5.56001 7.32 0.730007C7.32 0.310007 7.3 0.0400085 7.88 0.0400085C18.17 0.0700085 28.46 0.080008 38.76 0.100008C41.08 0.100008 43.41 0.150008 45.73 0.170008C46.41 0.170008 46.97 0.780007 46.97 1.47001C46.95 6.33001 46.94 11.19 46.91 16.04C46.91 16.41 47 16.63 47.32 16.88C49.01 18.22 50.79 19.47 52.35 20.98C52.9 21.51 53.31 22.1 53.31 22.9C53.31 29.4 53.31 35.9 53.29 42.4C53.29 44.16 53.29 45.93 53.26 47.69C53.23 49.65 51.96 51.04 49.98 51.11C47.5 51.2 45.02 51.2 42.54 51.21C37.3 51.22 32.06 51.21 25.59 51.21L25.57 51.23ZM50.46 25.51C45.58 28.03 40.82 30.48 36.06 32.93C35.45 33.24 35.21 33.46 35.93 34.02C39.06 36.46 42.13 38.96 45.23 41.44C45.95 42.02 46.7 42.58 47.37 43.22C47.98 43.8 48.2 44.58 47.83 45.34C47.51 46 46.79 45.88 46.18 45.87C45.81 45.87 45.56 45.62 45.29 45.41C39.36 40.62 33.43 35.84 27.53 31.03C27.01 30.61 26.68 30.63 26.18 31.04C20.28 35.82 14.36 40.56 8.47 45.35C7.77 45.92 7.08 45.91 6.3 45.84C5.97 45.81 5.8 45.65 5.79 45.31C5.77 44.36 5.87 43.54 6.74 42.85C10.42 39.97 14.05 37.02 17.7 34.09C17.96 33.89 18.3 33.75 18.35 33.4C13.7 30.58 8.58 28.7 3.98 25.83C3.11 25.29 3.34 26.08 3.34 26.44C3.33 33.37 3.36 40.31 3.3 47.24C3.3 48.24 3.63 48.4 4.52 48.4C19.46 48.38 34.41 48.4 49.35 48.42C50.24 48.42 50.51 48.15 50.51 47.25C50.47 41.09 50.47 34.93 50.46 28.77C50.46 27.73 50.46 26.68 50.46 25.51ZM10.1 14.17C10.1 17.81 10.11 21.45 10.09 25.09C10.09 25.64 10.24 25.95 10.76 26.21C13.87 27.76 16.98 29.34 20.06 30.94C20.63 31.23 21.04 31.23 21.53 30.8C22.38 30.06 23.26 29.34 24.16 28.67C26.16 27.19 27.73 27.21 29.7 28.75C30.51 29.38 31.31 30.04 32.08 30.73C32.64 31.23 33.13 31.25 33.81 30.89C37.05 29.17 40.31 27.47 43.6 25.84C44.32 25.48 45.04 25.41 44.33 24.38C44.13 24.08 44.24 23.56 44.24 23.15C44.24 16.55 44.23 9.94001 44.24 3.34001C44.24 2.68001 44.16 2.38001 43.37 2.39001C32.56 2.42001 21.75 2.42001 10.94 2.39001C10.26 2.39001 10.07 2.57001 10.07 3.25001C10.1 6.89001 10.09 10.53 10.08 14.17H10.1ZM7.11 24.16C7.11 22.78 7.11 21.59 7.11 20.39C7.11 20.22 7.19 19.99 6.98 19.9C6.78 19.81 6.63 19.99 6.5 20.1C5.8 20.69 5.13 21.33 4.4 21.9C3.95 22.25 3.91 22.46 4.44 22.74C5.28 23.17 6.11 23.63 7.12 24.16H7.11ZM46.89 24.2C47.63 23.51 48.48 23.09 49.37 22.74C49.62 22.64 50.01 22.49 49.67 22.18C48.95 21.51 48.15 20.91 47.32 20.23C47.08 21.64 47.57 22.97 46.89 24.2Z" fill="white"/>
<path d="M32.15 14.96C32.27 16.07 31.98 17.41 32.34 18.73C32.63 19.81 33.16 20.01 34.09 19.41C34.74 19 35.05 18.42 35.2 17.67C36.07 13.24 33.76 8.83001 28.55 8.14001C25.66 7.76001 23.04 8.16001 20.85 10.18C18.2 12.62 18 15.72 18.95 18.91C19.87 22 22.19 23.61 25.35 24.05C27.01 24.28 28.62 24.2 30.18 23.52C30.64 23.32 31.06 23.38 31.2 23.95C31.31 24.42 31.34 24.92 30.72 25.07C27.5 25.86 24.34 25.97 21.36 24.22C18.05 22.27 16.76 19.24 16.88 15.55C17.09 9.21001 22.88 5.45001 29.51 6.83001C35.38 8.04001 37.64 13.07 36.57 18.19C36.39 19.07 36.02 19.9 35.37 20.56C33.99 21.97 31.95 21.81 30.82 20.18C30.6 19.85 30.47 19.57 30 20C28.04 21.79 25.56 22.04 23.54 20.73C21.58 19.45 20.7 16.68 21.5 14.3C22.65 10.88 26.45 9.64002 29.4 11.74C30.23 12.33 30.25 12.33 30.38 11.36C30.46 10.74 30.9 10.86 31.28 10.84C31.74 10.83 32.16 10.88 32.15 11.51C32.13 12.59 32.15 13.68 32.15 14.97V14.96ZM23.21 16.2C23.17 18.25 24.51 19.76 26.4 19.8C28.56 19.85 30.36 18.19 30.38 16.13C30.4 14.13 28.81 12.53 26.74 12.46C24.76 12.4 23.25 14 23.21 16.19V16.2Z" fill="white"/>
</svg>
