<?xml version="1.0" encoding="UTF-8"?>
<svg id="Layer_2" data-name="Layer 2" xmlns="http://www.w3.org/2000/svg" viewBox="0 0 29.51 44.76">
  <defs>
    <style>
      .cls-1 {
        fill: #c73b3c;
      }
    </style>
  </defs>
  <g id="Layer_1-2" data-name="Layer 1">
    <path class="cls-1" d="m14.75,0C6.62,0,0,6.62,0,14.75c0,3.19,1.93,7.31,3.18,9.64l10.68,19.84h0c.18.32.52.53.89.53s.71-.2.89-.52l10.68-19.84c1.25-2.32,3.18-6.44,3.18-9.64C29.51,6.62,22.89,0,14.75,0h0Zm0,2.03c7.04,0,12.72,5.68,12.72,12.72,0,2.28-1.76,6.51-2.93,8.67l-9.79,18.19L4.96,23.42c-1.16-2.16-2.93-6.39-2.93-8.67C2.04,7.72,7.72,2.03,14.75,2.03h0Zm0,5.09c-4.2,0-7.63,3.43-7.63,7.63s3.43,7.63,7.63,7.63,7.63-3.43,7.63-7.63-3.43-7.63-7.63-7.63Zm0,2.03c3.1,0,5.6,2.49,5.6,5.6s-2.49,5.6-5.6,5.6-5.6-2.49-5.6-5.6,2.49-5.6,5.6-5.6h0Z"/>
  </g>
</svg>