<svg width="59" height="59" viewBox="0 0 59 59" fill="none" xmlns="http://www.w3.org/2000/svg">
<path d="M30.17 58.97C26.05 59.02 22.75 58.49 19.59 57.25C17.86 56.57 16.23 56.74 14.54 57.43C13.15 58 11.75 58.61 10.26 58.9C10.01 58.95 9.76998 58.98 9.54998 58.84C8.63998 58.28 7.91998 57.7 7.76998 56.45C7.48998 54.11 7.62998 51.75 7.27998 49.43C7.18998 48.8 7.05998 48.25 6.45998 47.8C5.81998 47.31 5.43998 46.53 4.94998 45.87C4.40998 45.13 4.33998 44.12 3.53998 43.55C3.35998 43.42 3.39998 43.15 3.43998 42.94C3.51998 42.57 3.38998 42.37 3.02998 42.25C2.90998 42.21 2.71998 42.02 2.73998 41.94C2.97998 40.95 2.08998 40.36 1.82998 39.54C1.35998 38.06 0.939979 36.57 0.639979 35.05C-0.190021 30.88 -0.010021 26.77 1.13998 22.66C1.85998 20.07 2.69998 17.56 4.12998 15.29C5.80998 12.63 7.55998 9.96 10.12 8.07C11.9 6.75 13.43 5 15.68 4.36C16.1 3.46 17.18 3.79 17.86 3.18C18.36 2.73 19.25 2.49 20 2.28C22.78 1.49 25.6 0.810002 28.5 0.770002C31.93 0.730002 35.34 1.09 38.58 2.33C40.63 3.12 42.65 3.95 44.57 5.08C46.65 6.3 48.23 8.04 49.91 9.68C50.56 10.32 51.29 10.9 51.86 11.6C57.09 18.02 59.25 25.37 58.19 33.56C57.99 35.08 57.59 36.63 57.16 38.15C56.45 40.68 55.28 42.93 54.02 45.16C52.41 48 50.2 50.4 47.65 52.42C45.86 53.84 44 55.23 41.88 56.13C40.93 56.53 40.01 57.02 38.91 57.21C38.14 57.34 37.27 57.66 36.48 57.95C34.19 58.79 31.84 58.96 30.18 58.95L30.17 58.97ZM29.28 56.31C36.49 56.27 42.73 53.75 47.87 48.72C53.09 43.61 55.77 37.26 55.81 30.01C55.85 23.08 53.41 16.94 48.6 11.84C43.32 6.24 36.74 3.61 29.13 3.48C25.68 3.42 22.32 4.14 19.16 5.55C9.21998 9.98 3.72998 17.67 2.90998 28.46C2.37998 35.37 4.56998 41.57 9.06998 46.89C9.61998 47.54 9.94998 48.27 10.01 49.12C10.13 51.13 10.32 53.14 10.35 55.15C10.37 56.02 10.73 56.03 11.32 55.82C12.87 55.26 14.41 54.69 15.95 54.1C16.91 53.73 17.81 53.72 18.78 54.15C22.12 55.62 25.63 56.35 29.29 56.32L29.28 56.31Z" fill="white"/>
<path d="M38.36 45.6C26.84 45.09 17.71 36.95 15.98 25.61C15.79 24.38 15.71 23.12 15.77 21.87C15.97 17.96 19.7 14.96 23.42 15.71C24.59 15.95 25.37 16.56 25.58 17.76C26.04 20.37 26.47 22.99 26.9 25.6C27.1 26.8 26.37 27.5 25.46 28C24.92 28.3 24.76 28.54 25.04 29.13C26.62 32.47 29.22 34.79 32.44 36.49C32.85 36.7 33.06 36.64 33.3 36.21C34.23 34.53 34.71 34.3 36.62 34.6C38.88 34.96 41.14 35.35 43.39 35.76C45.07 36.06 45.73 36.87 45.78 38.59C45.9 42.92 42.85 45.8 38.37 45.61L38.36 45.6ZM37.88 43.45C38.33 43.48 38.61 43.51 38.88 43.51C41.58 43.54 43.72 41.55 43.71 39.06C43.71 38.29 43.4 37.87 42.63 37.74C40.46 37.38 38.3 37 36.14 36.61C35.65 36.52 35.38 36.62 35.19 37.15C34.6 38.78 33.42 39.26 31.85 38.52C27.89 36.66 24.91 33.8 23.01 29.85C22.1 27.95 22.37 27.11 24.25 26.19C24.64 26 24.82 25.8 24.74 25.36C24.34 23.11 23.96 20.86 23.57 18.6C23.46 17.96 23.1 17.69 22.42 17.7C19.97 17.76 17.97 19.64 17.87 22.08C17.81 23.36 17.9 24.64 18.14 25.91C20.12 36.25 28.73 43.11 37.88 43.45Z" fill="white"/>
</svg>
